<svg xmlns="http://www.w3.org/2000/svg" xmlns:xlink="http://www.w3.org/1999/xlink" viewBox="0 0 475.34 438.95"><defs><style>.cls-1{isolation:isolate;}.cls-2{opacity:0.37;}.cls-22,.cls-3{opacity:0.25;}.cls-3{mix-blend-mode:multiply;}.cls-4{fill:#3b3b3b;}.cls-5{fill:#7caaff;}.cls-6{opacity:0.42;}.cls-7{fill:#76417f;}.cls-8{opacity:0.47;}.cls-9{fill:#ff7180;}.cls-10{fill:#e5e8ed;}.cls-11,.cls-15{fill:#241352;}.cls-11{opacity:0.11;}.cls-12{fill:#fff;}.cls-13{fill:#ffb9b4;}.cls-14{fill:url(#Degradado_sin_nombre_6);}.cls-16{opacity:0.32;}.cls-17{fill:#fac480;}.cls-18{fill:#9a9aa1;}.cls-19{opacity:0.18;}.cls-20{fill:#eeedf2;}.cls-21{opacity:0.12;}.cls-23{opacity:0.22;}.cls-24{fill:#ff947e;}.cls-25{fill:#d5ea7d;}.cls-26{opacity:0.41;}</style><linearGradient id="Degradado_sin_nombre_6" x1="730.5" y1="911.2" x2="676.75" y2="615.09" gradientUnits="userSpaceOnUse"><stop offset="0.05" stop-color="#00c1ce"/><stop offset="1" stop-color="#82eba1"/></linearGradient></defs><g class="cls-1"><g id="Layer_1" data-name="Layer 1"><g class="cls-2"><g class="cls-3"><path class="cls-4" d="M636.61,530.73c27,37.85,55.85,91.16,95.73,117,48.58,31.43,61.18-30.75,70.27-64.94,8.54-32.11,41.55-102.68-8.1-118.06-22.12-6.85-48.56,5.89-69.27,12.05L635.33,503.5c-30.24,9-15.25,56.7,14.72,46.79l66.8-22.08c12.46-4.11,56.65-26.16,68.92-17.53l-10.93-13.05c7.37,16.61-8.75,53.74-12.74,70.42-2.71,11.28-6.52,22.84-8.23,34.33-2.76,18.6-1.85,9.23-13.26-1.1-30.67-27.79-59.14-55.62-93-79.67-6-4.26-16.19,1.81-11,9.12Z" transform="translate(-397.7 -417.43)"/></g><path class="cls-5" d="M634.61,528.73c27,37.85,55.85,91.16,95.73,117,48.58,31.43,61.18-30.75,70.27-64.94,8.54-32.11,41.55-102.68-8.1-118.06-22.12-6.85-48.56,5.89-69.27,12.05L633.33,501.5c-30.24,9-15.25,56.7,14.72,46.79l66.8-22.08c12.46-4.11,56.65-26.16,68.92-17.53l-10.93-13.05c7.37,16.61-8.75,53.74-12.74,70.42-2.71,11.28-6.52,22.84-8.23,34.33-2.76,18.6-1.85,9.23-13.26-1.1-30.67-27.79-59.14-55.62-93-79.67-6-4.26-16.19,1.81-11,9.12Z" transform="translate(-397.7 -417.43)"/></g><g class="cls-6"><g class="cls-3"><path class="cls-4" d="M431.09,749.94c-14,40.08,6.57,83.41,51.75,88.54,42.17,4.8,82.87-32.64,79.68-75.45-3-39.68-42-72-81.42-66.28-38.11,5.54-74.16,50.54-56.38,88.55,5.6,12,25.45,7.33,27.39-4.87,3.4-21.41,4.45-42.59,28.23-51.72,22.22-8.52,47,9.5,51.3,31.93,4.57,23.83-17.45,47.07-40.86,47.81-25.86.82-52.31-31.18-50-56.43.59-6.42-7.59-8.16-9.71-2.08Z" transform="translate(-397.7 -417.43)"/></g><path class="cls-7" d="M429.09,747.94c-14,40.08,6.57,83.41,51.75,88.54,42.17,4.8,82.87-32.64,79.68-75.45-3-39.68-42-72-81.42-66.28-38.11,5.54-74.16,50.54-56.38,88.55,5.6,12,25.45,7.33,27.39-4.87,3.4-21.41,4.45-42.59,28.23-51.72,22.22-8.52,47,9.5,51.3,31.93,4.57,23.83-17.45,47.07-40.86,47.81-25.86.82-52.31-31.18-50-56.43.59-6.42-7.59-8.16-9.71-2.08Z" transform="translate(-397.7 -417.43)"/></g><g class="cls-8"><g class="cls-3"><path class="cls-4" d="M862.58,829.18c-20,4.66-40.7,4.42-48.26-15.81-5.63-15.07,4.1-26,8.18-40.34,4.63-16.22,1.56-33.47-10.27-47.09-22.48-25.88-76.79-28.86-90.78,4.59-3.49,8.35,7,18.8,16.61,14.14,11.57-5.63,24.2-15.3,38.62-10.76,21.67,6.83,18.31,28.5,13,43.12-6.07,16.55-10.72,31.79-2.29,48.85,14.25,28.85,57.46,41.88,82.93,18.28,5.62-5.21,2.49-17.35-7.69-15Z" transform="translate(-397.7 -417.43)"/></g><path class="cls-9" d="M860.58,827.18c-20,4.66-40.7,4.42-48.26-15.81-5.63-15.07,4.1-26,8.18-40.34,4.63-16.22,1.56-33.47-10.27-47.09-22.48-25.88-76.79-28.86-90.78,4.59-3.49,8.35,7,18.8,16.61,14.14,11.57-5.63,24.2-15.3,38.62-10.76,21.67,6.83,18.31,28.5,13,43.12-6.07,16.55-10.72,31.79-2.29,48.85,14.25,28.85,57.46,41.88,82.93,18.28,5.62-5.21,2.49-17.35-7.69-15Z" transform="translate(-397.7 -417.43)"/></g><path class="cls-10" d="M481.09,570.71c0,2.46,56.92,189.8,56.92,189.8l271.54-11.45-48.1-178.35Z" transform="translate(-397.7 -417.43)"/><path class="cls-11" d="M546.9,686.79c.7,1.4,7.66,22.73,7.66,22.73l102.89-2.8-8.72-19.93Z" transform="translate(-397.7 -417.43)"/><path class="cls-11" d="M607.34,649.75c.53.44,6.6,21.06,6.6,21.06h26.83l-6.17-21.06Z" transform="translate(-397.7 -417.43)"/><path class="cls-11" d="M642.88,649.75c.53.44,6.6,21.06,6.6,21.06h26.83l-6.17-21.06Z" transform="translate(-397.7 -417.43)"/><path class="cls-11" d="M678.43,649.75c.52.44,6.59,21.06,6.59,21.06h26.84l-6.17-21.06Z" transform="translate(-397.7 -417.43)"/><path class="cls-12" d="M518.93,611.52l0,.07a15.79,15.79,0,0,0,15.22,11L684.31,621a15.81,15.81,0,0,0,15.11-19.74h0A15.79,15.79,0,0,0,684,589.38l-150.17,1.55A15.81,15.81,0,0,0,518.93,611.52Z" transform="translate(-397.7 -417.43)"/><path class="cls-13" d="M595.68,684.44l-9.74-17.2L573.68,659a5.1,5.1,0,0,1-2.19-4.93l1.44-10.12a10.88,10.88,0,0,1,1.94-4.79l2.59-2.86s-13.54-16.09-10.63-17.06,17.81,18.18,20.73,18.51,5.24-1.63,8.12-.33,5.8,9.09,5.8,9.09L603.1,665l5.18,11Z" transform="translate(-397.7 -417.43)"/><path class="cls-13" d="M736.43,607.49l1.87,44.17a17.4,17.4,0,0,1-17.48,18.16h0a17.41,17.41,0,0,1-17.25-16.52L702.26,628Z" transform="translate(-397.7 -417.43)"/><path class="cls-14" d="M786.38,757.91l.19-58.94-5.11-33.55a28.87,28.87,0,0,0-36.39-23.49l-31.9,9a75,75,0,0,0-27.81,14.72l-49.12,41.89-30.36-44.79-18.55,13c0,3.72,22.26,81.83,43.59,79,15.2-2,48.06-20.3,63.39-27.25a259.13,259.13,0,0,1,9.83,24.78l-2.81,69.54a21.93,21.93,0,0,0,21.58,22.83c28.18.42,74.56-4.49,88.86-39.31Z" transform="translate(-397.7 -417.43)"/><path class="cls-13" d="M731.21,579.43l2.45,16.05s12.65-1.2,11.75,10.84S735,615.4,735,615.4s4.55,29.24-27,27c-25.26-1.84-30.74-33-33.73-59.72a17.18,17.18,0,0,1,16.44-19.1l20.45-.72A19.56,19.56,0,0,1,731.21,579.43Z" transform="translate(-397.7 -417.43)"/><path class="cls-7" d="M696.82,557s25.64-14.22,40.92,2.73,15.82,55.79,28.91,62.9,37.09,8.21,40.91,31.72S822.29,679,822.29,679l-22.91,14.76L789,688.82l2.18,9.85-12,5.46L771,699.21l.55,11.49s-9.82,14.22-16.37,0-1.09-45.94-12.54-54.15-41.46-8.2-41.46-39.38c0,0,11.45-3.83,8.18-11.48s-12.55-3.83-12.55-3.83S685.91,598,687,588.73l-15,7.46S660.1,553.76,696.82,557Z" transform="translate(-397.7 -417.43)"/><path class="cls-13" d="M675.35,591.22s1.86,20.1,3.16,25.86c.68,3,3.15,1.84,3.15,1.84Z" transform="translate(-397.7 -417.43)"/><path class="cls-15" d="M702.9,614.16c0-.15.85-.33,1.78-1.22a2.77,2.77,0,0,0,.86-1.88,2.08,2.08,0,0,0-1.11-2,1.6,1.6,0,0,0-2.09,1l-.84-.23c1-2.33,1.76-3.89,1.94-3.82s-.29,1.74-1.13,4.14l-.84-.23a2.46,2.46,0,0,1,3.32-1.74,2.92,2.92,0,0,1,1.65,2.93,3.33,3.33,0,0,1-1.31,2.35C703.88,614.37,702.89,614.26,702.9,614.16Z" transform="translate(-397.7 -417.43)"/><path class="cls-15" d="M593.81,642.16c-.15.23-2.09-.75-4.34-2.18s-4-2.77-3.81-3,2.08.75,4.33,2.18S594,641.93,593.81,642.16Z" transform="translate(-397.7 -417.43)"/><path class="cls-15" d="M579.71,649.75c-.2.19-1.64-1-3.59-2.17s-3.67-1.92-3.59-2.19,2,.09,4.1,1.35S579.91,649.57,579.71,649.75Z" transform="translate(-397.7 -417.43)"/><path class="cls-15" d="M578.27,653.25c-.08.25-1.78,0-3.66-.94s-3.15-2.09-3-2.3,1.61.54,3.42,1.42S578.35,653,578.27,653.25Z" transform="translate(-397.7 -417.43)"/><path class="cls-15" d="M539.21,599.3a15.54,15.54,0,0,1-1.58-.35,6.57,6.57,0,0,0-4.13.65,6.24,6.24,0,0,0,0,11.1,6.19,6.19,0,0,0,7-1,6.31,6.31,0,0,0,1.9-5.63,6.63,6.63,0,0,0-2-3.7c-.74-.7-1.27-1-1.22-1.05a3.22,3.22,0,0,1,1.47.77,6.55,6.55,0,0,1,2.39,3.85,7,7,0,0,1-2,6.41,7,7,0,0,1-11.85-5.92,7,7,0,0,1,3.93-5.43,6.57,6.57,0,0,1,4.52-.4A3.23,3.23,0,0,1,539.21,599.3Z" transform="translate(-397.7 -417.43)"/><path class="cls-15" d="M539.53,611c.22-.16,1.23.84,2.25,2.23s1.68,2.65,1.47,2.81-1.23-.84-2.25-2.23S539.32,611.13,539.53,611Z" transform="translate(-397.7 -417.43)"/><g class="cls-16"><path class="cls-15" d="M671.15,610.32c0,.27-26.1.49-58.29.49s-58.3-.22-58.3-.49,26.1-.49,58.3-.49S671.15,610.05,671.15,610.32Z" transform="translate(-397.7 -417.43)"/></g><path class="cls-17" d="M536.26,649.75c.52.44,6.59,21.06,6.59,21.06h26.84l-6.17-21.06Z" transform="translate(-397.7 -417.43)"/><path class="cls-7" d="M824.26,648.15a5.38,5.38,0,0,1-1.53.26,9.46,9.46,0,0,1-4.37-.86,17,17,0,0,1-5.62-4.26,44.1,44.1,0,0,1-5.17-7.76c-1.74-2.92-3.68-6.25-6.9-8.57s-7.57-3.08-12.06-3.17-9.37.25-14.3-1.07a26.29,26.29,0,0,1-12.83-8.46,48.37,48.37,0,0,1-8-13.2c-1.92-4.6-3.35-9.18-4.8-13.48-2.81-8.61-6.12-16.21-10.77-21.26s-9.64-7.8-13.33-8.66a26.9,26.9,0,0,0-5.89-.65,7.82,7.82,0,0,1,1.54-.15,19,19,0,0,1,4.44.43c3.79.76,9.08,3.38,13.75,8.56a39.61,39.61,0,0,1,6.3,9.41,96,96,0,0,1,4.81,12c1.48,4.31,2.92,8.86,4.83,13.4a47.55,47.55,0,0,0,7.81,12.92,25.5,25.5,0,0,0,12.35,8.19c4.7,1.28,9.53.9,14.08,1.09s9.11.9,12.5,3.41,5.32,5.93,7,8.89a44.68,44.68,0,0,0,5,7.74,17,17,0,0,0,5.37,4.28,9.77,9.77,0,0,0,4.21,1C823.73,648.22,824.26,648.09,824.26,648.15Z" transform="translate(-397.7 -417.43)"/><path class="cls-7" d="M748.63,713.19a11.37,11.37,0,0,1-4.16-.82,17.25,17.25,0,0,1-8.74-7.44,15.89,15.89,0,0,1-2.3-7.71,24.13,24.13,0,0,1,1.8-9.06c1.12-3,2.58-6.09,3.67-9.37a24.17,24.17,0,0,0,1.13-5.1,15.38,15.38,0,0,0-.45-5.26,19.6,19.6,0,0,0-5.71-8.74,44.41,44.41,0,0,0-8.11-5.79c-5.53-3.2-10.72-6.12-14-9.89A18,18,0,0,1,707,633.58a11.71,11.71,0,0,1,.18-3.15,4.8,4.8,0,0,1,.32-1,17.49,17.49,0,0,0-.12,4.17,18.06,18.06,0,0,0,5,10c3.22,3.59,8.34,6.4,13.92,9.57a44.86,44.86,0,0,1,8.31,5.87,20.38,20.38,0,0,1,6,9.17,16.5,16.5,0,0,1,.48,5.62,24.86,24.86,0,0,1-1.19,5.31c-1.13,3.36-2.61,6.4-3.74,9.39a23.41,23.41,0,0,0-1.83,8.72,15.43,15.43,0,0,0,2.09,7.39,17.28,17.28,0,0,0,8.28,7.43A28.22,28.22,0,0,0,748.63,713.19Z" transform="translate(-397.7 -417.43)"/><path class="cls-7" d="M703.49,599.91s-.16.39-.66.94a8.24,8.24,0,0,1-2.58,1.8,10.14,10.14,0,0,1-4.6.93A9.19,9.19,0,0,1,686.9,597a10.32,10.32,0,0,1-.37-4.68,8.38,8.38,0,0,1,1-3c.38-.63.67-.93.71-.9s-.82,1.44-1,4A9.17,9.17,0,0,0,700,602C702.34,601.11,703.36,599.77,703.49,599.91Z" transform="translate(-397.7 -417.43)"/><path class="cls-18" d="M703.85,617.19c0-.12.8.3.76,1.47a2.31,2.31,0,0,1-.92,1.73,2.36,2.36,0,0,1-2.41.14,2.54,2.54,0,0,1-1.45-1.92,2.67,2.67,0,0,1,.45-1.85c.64-.91,1.38-1,1.4-.88s-.46.44-.8,1.22a1.87,1.87,0,0,0,.82,2.55,1.6,1.6,0,0,0,1.49,0,1.79,1.79,0,0,0,.73-1.08C704.12,617.77,703.74,617.28,703.85,617.19Z" transform="translate(-397.7 -417.43)"/><path class="cls-7" d="M699.43,551.36c.27,0,.54,2.19.61,4.92s-.1,5-.37,5-.54-2.2-.61-4.92S699.16,551.36,699.43,551.36Z" transform="translate(-397.7 -417.43)"/><path class="cls-7" d="M694.67,551.43c.19-.17,2.05,1.83,3.48,4.84s1.86,5.7,1.6,5.75-1.08-2.44-2.48-5.33S694.44,551.6,694.67,551.43Z" transform="translate(-397.7 -417.43)"/><g class="cls-19"><path class="cls-20" d="M804,790.44c.13,0,.35.64-.32,1.58a4.68,4.68,0,0,1-4.4,1.46c-2-.26-4-1.56-6-1.39s-4.21,1.53-5.81,3.82-2.41,5.45-3.46,9.1-2.69,8.23-7.12,11.1a10.21,10.21,0,0,1-3.83,1.45,7.31,7.31,0,0,1-2.14,0l-1.07-.11a9.32,9.32,0,0,1-1-.3,15.23,15.23,0,0,1-6.44-4.53c-1.65-1.81-3-3.69-4.53-5.33a10.74,10.74,0,0,0-4.6-3.39,5,5,0,0,0-4.6,1,15.89,15.89,0,0,0-3.73,4.68c-.53.93-1,1.85-1.48,2.88s-1,2.08-1.6,3.1a20.13,20.13,0,0,1-4.53,5.68,10.19,10.19,0,0,1-7.25,2.38,11.9,11.9,0,0,1-6.36-2.73,20.33,20.33,0,0,1-4-4.41c-1-1.52-1.87-3-2.67-4.33a20.52,20.52,0,0,0-5-6.15,8.84,8.84,0,0,0-5.34-1.65c-3.26.1-4.32,2.12-4.64,1.85-.12-.06-.1-.63.52-1.48a6.23,6.23,0,0,1,3.89-2.26,10.32,10.32,0,0,1,7,1.24,21.57,21.57,0,0,1,6.38,6.57c1.87,2.67,3.6,5.51,6.26,7.41a7.87,7.87,0,0,0,4.18,1.65,5.78,5.78,0,0,0,4.08-1.55,16.1,16.1,0,0,0,3.33-4.48c.49-.91,1-1.86,1.41-2.86s1-2.13,1.57-3.19a20.2,20.2,0,0,1,4.92-6.18,10.64,10.64,0,0,1,4.11-2,9.56,9.56,0,0,1,4.78.13,15,15,0,0,1,6.92,4.85c1.67,1.89,3,3.77,4.46,5.35,2.79,3.31,5.85,4.56,8.61,2.84a10.66,10.66,0,0,0,3.48-3.61,24.49,24.49,0,0,0,2.13-4.88c1.2-3.44,2.24-7.1,4.58-10s5.42-4.62,8.56-4.45a9.32,9.32,0,0,1,3.84,1.12,20.65,20.65,0,0,0,2.54,1.15,4,4,0,0,0,3.28-.31C803.6,790.9,803.77,790.4,804,790.44Z" transform="translate(-397.7 -417.43)"/></g><g class="cls-19"><path class="cls-20" d="M791.85,769.12c-.24.32-1.59-.91-4.18-.32a8.35,8.35,0,0,0-4,2.31,20.45,20.45,0,0,0-3.35,5.68c-.54,1.2-1.1,2.51-1.84,3.88a17,17,0,0,1-3,4.08,10.51,10.51,0,0,1-5.21,2.88,8.79,8.79,0,0,1-6.5-1.34c-3.67-2.52-5.41-6.06-7.8-8.42a7.64,7.64,0,0,0-3.71-2.36,7.76,7.76,0,0,0-4.47.4c-3,1.1-5.35,3.89-7,7-.84,1.5-1.57,3.26-2.52,5a17.64,17.64,0,0,1-3.71,5,7.85,7.85,0,0,1-6.54,2,8.65,8.65,0,0,1-5.22-3.31c-2.21-2.82-3.27-5.48-4.75-7.36a9.33,9.33,0,0,0-5-3.41,11.6,11.6,0,0,0-4.85-.37c-2.73.38-4.1,1.39-4.34,1.07-.2-.17.8-1.81,3.89-2.92a12.09,12.09,0,0,1,5.89-.45,11.91,11.91,0,0,1,7.06,3.87c2,2.19,3.35,4.93,5.16,6.93a4.55,4.55,0,0,0,2.8,1.7,3.43,3.43,0,0,0,2.9-1.08A13.66,13.66,0,0,0,734,785.7c.79-1.5,1.46-3.25,2.44-5.1a24.35,24.35,0,0,1,3.7-5.29,15.42,15.42,0,0,1,5.82-4,12.43,12.43,0,0,1,7.33-.55,12.18,12.18,0,0,1,6,3.77,53.85,53.85,0,0,1,3.66,4.59,15.61,15.61,0,0,0,3.17,3.38c2.07,1.53,4.48,1,6.48-.76s3.23-4.15,4.55-6.53a20.87,20.87,0,0,1,4.6-6.16,9.66,9.66,0,0,1,5.65-2.17,5.58,5.58,0,0,1,3.67,1.09C791.8,768.55,792,769,791.85,769.12Z" transform="translate(-397.7 -417.43)"/></g><g class="cls-21"><path class="cls-20" d="M787.53,741.51c-.13.39-1.68-.31-3.83.85a10.24,10.24,0,0,0-3.27,3,12.88,12.88,0,0,0-1.41,2.46c-.43,1-.89,2.09-1.36,3.22a27.33,27.33,0,0,1-1.86,3.71,11.75,11.75,0,0,1-3.39,3.66,10.27,10.27,0,0,1-5.35,1.7,14.92,14.92,0,0,1-5.5-1,28,28,0,0,1-4.89-2.46c-.78-.47-1.53-1-2.28-1.5s-1.4-1-2.12-1.42c-2.8-1.8-6-3.35-8.7-3.07a5.79,5.79,0,0,0-3.52,1.67,13.75,13.75,0,0,0-2.6,3.77c-1.45,2.9-2.52,6.53-5.05,9.53a11.05,11.05,0,0,1-4.83,3.35,7.66,7.66,0,0,1-9.8-3.76c-.76-1.35-1.23-2.57-1.74-3.59a10.56,10.56,0,0,0-8.09-5.77c-2.54-.38-4.05.08-4.18-.29S705,754.2,708,754a12,12,0,0,1,5.42,1,12.23,12.23,0,0,1,5.6,5c1.34,2.28,2.44,4.73,4.11,5.21s4.27-.4,5.77-2.41c1.7-2.1,2.61-5.24,4.22-8.76a17.89,17.89,0,0,1,3.52-5.16,10.65,10.65,0,0,1,6.41-3,13.9,13.9,0,0,1,6.61,1.1,29,29,0,0,1,5.19,2.82c.79.52,1.53,1.06,2.26,1.58s1.35,1,2,1.41a23.64,23.64,0,0,0,4,2.2,10.9,10.9,0,0,0,3.82.92,6.18,6.18,0,0,0,3.2-.82c1.89-1.1,3.19-3.33,4.32-5.46.58-1.07,1.13-2.14,1.72-3.15a14.79,14.79,0,0,1,2.08-2.79,10.9,10.9,0,0,1,4.66-3,5.3,5.3,0,0,1,3.58.09C787.33,741,787.6,741.38,787.53,741.51Z" transform="translate(-397.7 -417.43)"/></g><g class="cls-21"><path class="cls-20" d="M787.37,718.82c-.24.33-1.55-.8-3.93-.13A9.18,9.18,0,0,0,779.6,721a30.55,30.55,0,0,0-3.74,5.17,22,22,0,0,1-2.64,3.35,11.58,11.58,0,0,1-4.24,2.75c-3.42,1.29-7.23.78-10.58-.28s-6.64-2.86-9.72-4.12-6.51-2.22-9.33-1.5a7.47,7.47,0,0,0-3.65,2.14,22.11,22.11,0,0,0-2.84,4c-.9,1.51-1.71,3.09-2.87,4.71a17.37,17.37,0,0,1-4.11,4.14,9.76,9.76,0,0,1-5.83,1.88,9.05,9.05,0,0,1-5.4-2.13c-2.65-2.28-4-4.67-5.6-6.25a6.44,6.44,0,0,0-4.79-2.38,7.58,7.58,0,0,0-4.15,1.23c-2.13,1.36-2.63,2.94-3,2.8-.15,0-.23-.48,0-1.26a6.59,6.59,0,0,1,1.84-3,9,9,0,0,1,5.18-2.48,8.23,8.23,0,0,1,3.8.42,11.38,11.38,0,0,1,3.53,2.16c2.09,1.8,3.76,4.15,5.71,5.58a4.75,4.75,0,0,0,6.15-.21,13.69,13.69,0,0,0,2.91-3.16c.83-1.22,1.63-2.81,2.54-4.42a25.3,25.3,0,0,1,3.48-5,12.2,12.2,0,0,1,6-3.51,15,15,0,0,1,6.67,0,28.22,28.22,0,0,1,5.68,1.85c3.54,1.55,6.37,3.28,9.28,4.26s5.65,1.42,7.86.72,3.87-2.4,5.4-4.31a27.17,27.17,0,0,1,4.8-5.25,10.16,10.16,0,0,1,5.29-2,5.06,5.06,0,0,1,3.5,1C787.32,718.27,787.46,718.72,787.37,718.82Z" transform="translate(-397.7 -417.43)"/></g><path class="cls-7" d="M635.89,709.29c.26.15-2,4.23-3.52,9.73s-1.65,10.18-2,10.17-.56-4.77,1-10.42S635.7,709.15,635.89,709.29Z" transform="translate(-397.7 -417.43)"/><path class="cls-7" d="M639.22,726.72c-.18.15-2.71-3.88-3.37-9.58s.8-10.21,1-10.11-.73,4.51,0,10S639.5,726.59,639.22,726.72Z" transform="translate(-397.7 -417.43)"/><g class="cls-22"><path class="cls-7" d="M704.89,651.82a11.94,11.94,0,0,1,2.47,0,18.74,18.74,0,0,1,6.83,1.8,23.35,23.35,0,0,1,8.67,7,24.57,24.57,0,0,1,4.89,13.9,33.22,33.22,0,0,1-4.22,17.4,43.14,43.14,0,0,1-5.94,8.12,55,55,0,0,1-8.05,7,115.56,115.56,0,0,1-20,10.94l-22.34,9.82-22.36,9.79A78.58,78.58,0,0,1,634,741.81a18.41,18.41,0,0,1-5.71.62,14.54,14.54,0,0,1-5.45-1.44,23.5,23.5,0,0,1-8.08-7,64.12,64.12,0,0,1-5.35-8.5,144.88,144.88,0,0,1-7.47-16.32c-3.93-10.26-6.34-18.81-8-24.7l-1.85-6.81c-.19-.74-.34-1.33-.45-1.78a3.74,3.74,0,0,1-.13-.62,3.07,3.07,0,0,1,.22.59l.55,1.75c.48,1.61,1.16,3.87,2,6.76,1.78,5.86,4.28,14.37,8.28,24.55a146.82,146.82,0,0,0,7.55,16.19,63.33,63.33,0,0,0,5.3,8.37,22.82,22.82,0,0,0,7.8,6.71,14.78,14.78,0,0,0,10.54.73,77.76,77.76,0,0,0,10.72-4.22l22.34-9.81c7.66-3.35,15.13-6.63,22.34-9.8A115,115,0,0,0,709,706.29a54,54,0,0,0,8-6.83,43,43,0,0,0,5.87-7.92,32.71,32.71,0,0,0,4.23-17,24.11,24.11,0,0,0-4.64-13.6,23.14,23.14,0,0,0-8.39-7,19.64,19.64,0,0,0-6.69-1.95C705.75,651.82,704.89,651.89,704.89,651.82Z" transform="translate(-397.7 -417.43)"/></g><g class="cls-22"><path class="cls-7" d="M710.83,840.5a6.55,6.55,0,0,1,.06-1.35c.1-1,.23-2.26.38-3.86.37-3.45.88-8.25,1.51-14.15a466.11,466.11,0,0,0,3-46.79c.1-18.32-1.93-34.85-4.61-46.54-1.3-5.86-2.63-10.53-3.64-13.73-.48-1.61-.92-2.84-1.18-3.68a6.39,6.39,0,0,1-.35-1.31,8.26,8.26,0,0,1,.54,1.24c.31.83.82,2,1.35,3.63a138.8,138.8,0,0,1,4,13.69c2.86,11.7,5,28.32,4.91,46.7a414.23,414.23,0,0,1-3.3,46.87c-.72,6-1.36,10.79-1.82,14.12-.23,1.59-.42,2.86-.56,3.83A7.66,7.66,0,0,1,710.83,840.5Z" transform="translate(-397.7 -417.43)"/></g><g class="cls-22"><path class="cls-7" d="M705.81,723.19c.1.26-2.64,1.58-6.12,3s-6.38,2.31-6.48,2.06,2.64-1.58,6.12-3S705.71,722.94,705.81,723.19Z" transform="translate(-397.7 -417.43)"/></g><path class="cls-7" d="M566.83,619.19s-.84.22-.2,1.66,1.13,2.3,1.13,2.3,1.53-.33,1.26-1.1A16.65,16.65,0,0,0,566.83,619.19Z" transform="translate(-397.7 -417.43)"/><path class="cls-15" d="M682.12,605.07c-.22.15-.83-.38-1.11-1.28s-.08-1.67.19-1.68.51.64.75,1.39S682.35,604.92,682.12,605.07Z" transform="translate(-397.7 -417.43)"/><path class="cls-15" d="M682.57,595.36c-.08.26-.93.21-1.86.47s-1.67.68-1.87.49.37-1.12,1.62-1.44S682.68,595.12,682.57,595.36Z" transform="translate(-397.7 -417.43)"/><g class="cls-23"><path class="cls-9" d="M695.14,616.07c1.38,2.31.16,5.59-2.93,6.9s-6.31-.06-7-2.65a5.49,5.49,0,0,1,9.95-4.25Z" transform="translate(-397.7 -417.43)"/></g><g class="cls-3"><path class="cls-4" d="M529.71,578.8c-4.37,1-8.9,1-10.55-3.46-1.24-3.29.89-5.69,1.79-8.82a10.86,10.86,0,0,0-2.25-10.3c-4.92-5.67-16.8-6.32-19.86,1-.77,1.83,1.53,4.11,3.63,3.09,2.53-1.23,5.29-3.34,8.45-2.35,4.74,1.49,4,6.23,2.83,9.43-1.32,3.62-2.34,7-.5,10.69,3.12,6.31,12.57,9.16,18.15,4,1.23-1.14.54-3.8-1.69-3.28Z" transform="translate(-397.7 -417.43)"/></g><path class="cls-9" d="M526,575.05c-4.37,1-8.9,1-10.56-3.46-1.23-3.29.9-5.69,1.79-8.82A10.88,10.88,0,0,0,515,552.46c-4.92-5.66-16.8-6.31-19.86,1-.77,1.83,1.53,4.11,3.63,3.09,2.53-1.23,5.29-3.35,8.45-2.35,4.74,1.49,4,6.23,2.83,9.43-1.32,3.62-2.34,7-.5,10.69,3.12,6.31,12.57,9.16,18.14,4,1.24-1.14.55-3.8-1.68-3.28Z" transform="translate(-397.7 -417.43)"/><g class="cls-3"><path class="cls-4" d="M579.78,574.81c3.11-1.44,5.25-4.58,7.49-7.1,2.63-3,5.26-5.89,7.87-8.86,2.18-2.48-1.84-5.64-4-3.17-2.48,2.81-4.93,5.63-7.39,8.45-2.2,2.53-5.2,5.1-6.24,8.35-.43,1.35.76,3,2.28,2.33Z" transform="translate(-397.7 -417.43)"/></g><path class="cls-24" d="M576,571.06c3.11-1.44,5.25-4.58,7.49-7.1q3.94-4.43,7.87-8.86c2.18-2.48-1.84-5.64-4-3.17-2.47,2.81-4.92,5.63-7.38,8.45-2.2,2.53-5.2,5.1-6.24,8.35-.43,1.35.76,3,2.28,2.33Z" transform="translate(-397.7 -417.43)"/><g class="cls-3"><path class="cls-4" d="M526,514a3.8,3.8,0,1,0-5.13,1.63A3.86,3.86,0,0,0,526,514Z" transform="translate(-397.7 -417.43)"/></g><path class="cls-15" d="M522.27,510.28a3.81,3.81,0,1,0-5.13,1.62,3.85,3.85,0,0,0,5.13-1.62Z" transform="translate(-397.7 -417.43)"/><g class="cls-3"><path class="cls-4" d="M552.61,521.81c-2.48,7.1,1.16,14.77,9.16,15.68,7.47.85,14.68-5.78,14.11-13.36-.52-7-7.44-12.75-14.41-11.74-6.75,1-13.14,9-10,15.68,1,2.12,4.51,1.3,4.85-.86.6-3.79.79-7.54,5-9.16,3.94-1.51,8.32,1.68,9.09,5.65.81,4.22-3.09,8.34-7.24,8.47-4.58.15-9.26-5.52-8.85-10a.88.88,0,0,0-1.72-.37Z" transform="translate(-397.7 -417.43)"/></g><path class="cls-17" d="M548.86,518.06c-2.48,7.1,1.16,14.77,9.16,15.68,7.47.85,14.68-5.78,14.11-13.36-.52-7-7.44-12.75-14.42-11.74-6.74,1-13.13,9-10,15.68,1,2.12,4.51,1.3,4.85-.86.6-3.79.79-7.54,5-9.16,3.94-1.51,8.32,1.68,9.08,5.65.81,4.22-3.09,8.34-7.23,8.47-4.58.14-9.26-5.52-8.85-10a.88.88,0,0,0-1.72-.37Z" transform="translate(-397.7 -417.43)"/><g class="cls-3"><path class="cls-4" d="M488.31,608.42c-3.77-5-8.15-10.81-13.29-14.51-2.38-1.71-6.42.74-4.34,3.61,3.76,5.2,9.45,9.64,14.57,13.44,1.66,1.23,4.54-.56,3.06-2.54Z" transform="translate(-397.7 -417.43)"/></g><path class="cls-25" d="M484.56,604.67c-3.77-5.06-8.15-10.81-13.3-14.51-2.37-1.71-6.41.74-4.34,3.6,3.77,5.21,9.46,9.65,14.58,13.45,1.66,1.23,4.54-.56,3.06-2.54Z" transform="translate(-397.7 -417.43)"/><g class="cls-3"><path class="cls-4" d="M555.91,486.42c2.32-5.87,4.93-12.61,5.39-18.95.21-2.92-4-5.09-5.34-1.82-2.46,5.94-3.26,13.12-3.81,19.48-.18,2.07,2.85,3.59,3.76,1.29Z" transform="translate(-397.7 -417.43)"/></g><path class="cls-7" d="M552.16,482.67c2.32-5.87,4.92-12.61,5.38-18.95.22-2.92-4-5.1-5.33-1.82-2.46,5.94-3.26,13.12-3.81,19.48-.18,2.07,2.85,3.59,3.76,1.29Z" transform="translate(-397.7 -417.43)"/><g class="cls-3"><path class="cls-4" d="M494.86,653.15c3.6,5.06,7.46,12.19,12.79,15.64,6.5,4.2,8.19-4.11,9.4-8.68,1.14-4.29,5.55-13.73-1.08-15.79-3-.91-6.5.79-9.26,1.62l-12,3.57c-4.05,1.2-2,7.58,2,6.26l8.93-2.95c1.67-.55,7.58-3.5,9.22-2.35l-1.46-1.74c1,2.22-1.17,7.18-1.71,9.41-.36,1.51-.87,3.05-1.1,4.59-.36,2.49-.24,1.24-1.77-.15-4.1-3.71-7.91-7.43-12.44-10.65-.8-.57-2.16.25-1.46,1.22Z" transform="translate(-397.7 -417.43)"/></g><path class="cls-5" d="M491.1,649.4c3.61,5.06,7.47,12.19,12.8,15.64,6.5,4.2,8.18-4.11,9.4-8.68,1.14-4.3,5.55-13.73-1.08-15.79-3-.91-6.5.79-9.27,1.61l-12,3.58c-4,1.2-2,7.58,2,6.26l8.93-3c1.67-.55,7.58-3.49,9.22-2.34L509.59,645c1,2.22-1.17,7.18-1.71,9.41-.36,1.51-.87,3.05-1.1,4.59-.37,2.49-.25,1.23-1.77-.15-4.1-3.71-7.91-7.43-12.44-10.65-.8-.57-2.16.24-1.47,1.22Z" transform="translate(-397.7 -417.43)"/><g class="cls-26"><g class="cls-3"><path class="cls-4" d="M418.77,580.87c25.11-11.62,42.32-37,60.38-57.23q31.78-35.68,63.46-71.45c17.59-20-14.86-45.44-32.37-25.55q-29.91,33.94-59.55,68.15C433,515.15,408.78,535.87,400.42,562c-3.48,10.88,6.13,24.49,18.35,18.83Z" transform="translate(-397.7 -417.43)"/></g><path class="cls-17" d="M416.77,578.87c25.11-11.62,42.32-37,60.38-57.23q31.78-35.68,63.46-71.45c17.59-20-14.86-45.44-32.37-25.55q-29.91,33.94-59.55,68.15C431,513.15,406.78,533.87,398.42,560c-3.48,10.88,6.13,24.49,18.35,18.83Z" transform="translate(-397.7 -417.43)"/></g></g></g></svg>